<?xml version="1.0" encoding="UTF-8"?>
<svg xmlns="http://www.w3.org/2000/svg" xmlns:xlink="http://www.w3.org/1999/xlink" width="700px" height="931px" viewBox="0 0 700 931" version="1.1">
<g id="surface1">
<path style=" stroke:none;fill-rule:evenodd;fill:rgb(93.72549%,47.45098%,47.45098%);fill-opacity:1;" d="M 512.542969 4.363281 C 512.8125 -1.519531 520.257812 -0.832031 523.445312 2.765625 L 539.609375 20.996094 C 541.492188 23.117188 543.757812 24.6875 545.71875 27.007812 C 548.402344 30.179688 550.640625 32.59375 552.863281 34.152344 C 556.40625 36.636719 559.839844 40.152344 563.203125 43.734375 C 565.828125 46.535156 568.039062 49.703125 571.003906 50.878906 C 572.441406 51.445312 573.832031 52.328125 575.234375 53.695312 C 576.125 54.566406 576.96875 55.464844 578.523438 56.421875 C 580.027344 57.34375 579.914062 57.507812 581.625 58.957031 C 584.363281 61.28125 588.664062 64.527344 591.777344 64.691406 C 595.390625 64.882812 598.964844 67.902344 602.023438 70.140625 C 606.730469 73.59375 612.113281 75.144531 617.15625 75.589844 C 623.289062 76.132812 633.273438 77.089844 636.515625 77.5625 C 642.488281 78.4375 649.300781 78.492188 650.898438 76.71875 C 653.273438 74.078125 656.148438 73.699219 657.570312 72.019531 C 659.613281 69.609375 661.230469 68.328125 661.613281 66.289062 C 662.332031 62.441406 664.332031 59.476562 668.003906 56.140625 C 675.296875 49.515625 674.484375 48.542969 674.113281 57.171875 C 673.984375 60.207031 673.386719 63.203125 671.578125 65.253906 C 669.742188 67.332031 668.96875 69.21875 668.097656 70.140625 C 665.925781 72.445312 665.992188 79.488281 666.5 83.203125 C 666.835938 85.636719 667.980469 88.789062 668.097656 90.0625 C 668.246094 91.652344 668.890625 93.347656 670.074219 94.664062 C 671.363281 96.105469 672.027344 97.144531 672.609375 98.332031 C 673.152344 99.429688 673.65625 100.625 674.679688 101.714844 C 676.371094 103.519531 676.984375 105.648438 678.15625 107.445312 C 681.550781 112.652344 685.246094 114.496094 690.28125 112.425781 C 708.566406 104.914062 695.40625 111.746094 693.476562 115.152344 C 690.917969 119.664062 688.722656 123.460938 683.136719 125.300781 C 679.25 126.578125 675.347656 128.667969 672.515625 132.066406 C 669.410156 135.792969 666.75 138.117188 663.585938 134.226562 C 658.320312 127.742188 655.421875 134.878906 658.230469 138.265625 C 662.078125 142.910156 661.050781 142.222656 657.101562 142.402344 C 654.648438 142.511719 651.773438 142.6875 649.019531 141.648438 C 643.960938 139.746094 639.226562 137.378906 634.261719 141.742188 C 632.976562 142.871094 632.96875 143.773438 630.21875 145.972656 C 625.160156 150.023438 621.691406 154.089844 618.1875 158.375 C 616.832031 160.035156 616.082031 162.148438 614.617188 163.074219 C 612.21875 164.589844 611.367188 166.40625 610.667969 168.429688 C 609.714844 171.195312 607.832031 172.597656 606.910156 174.164062 C 603.980469 179.128906 603.863281 184.628906 603.621094 191.640625 L 603.242188 202.445312 C 602.964844 210.421875 603.273438 210.328125 597.039062 206.675781 C 593.945312 204.863281 590.824219 203.988281 585.386719 202.917969 C 580.855469 202.023438 576.21875 201.628906 571.945312 199.722656 C 570.894531 199.253906 569.90625 198.027344 568.183594 197.652344 C 566.417969 197.269531 565.199219 196.230469 563.484375 194.742188 C 562.535156 193.914062 561.589844 192.875 560.195312 192.296875 C 557.8125 191.308594 557.460938 190.601562 556.4375 189.667969 C 554.378906 187.789062 552.496094 185.554688 549.386719 183.933594 C 546.65625 182.515625 544.851562 181.320312 542.902344 179.707031 C 541.140625 178.253906 539.140625 177.613281 535.851562 177.546875 C 530.976562 177.445312 526.390625 177.074219 521.941406 178.390625 C 520.679688 178.765625 518.320312 179.113281 516.207031 179.613281 C 511.316406 180.769531 511.324219 181.816406 509.910156 183.464844 L 499.757812 195.304688 C 495.921875 199.777344 496.398438 198.910156 494.871094 195.023438 C 493.589844 191.765625 492.824219 189.847656 491.203125 187.695312 C 489.535156 185.472656 487.660156 183.460938 482.839844 183.558594 C 481.3125 183.589844 479.503906 184 477.292969 184.3125 C 475.984375 184.496094 474.835938 184.542969 473.0625 186.003906 C 472.019531 186.863281 471.554688 187.148438 470.527344 187.976562 C 466.824219 190.953125 467.574219 194.433594 467.707031 197.746094 L 467.894531 202.445312 C 469.800781 207.214844 474.621094 209.0625 478.421875 209.871094 C 480.859375 210.386719 485.964844 210.441406 489.136719 210.058594 C 491.796875 209.734375 493.152344 210.664062 492.992188 213.441406 L 492.800781 216.636719 C 492.703125 218.351562 494.175781 218.597656 495.339844 219.078125 C 499.613281 220.839844 503.359375 222.480469 506.527344 223.121094 C 511.328125 224.085938 510.753906 225.925781 508.78125 228.289062 C 507.113281 230.285156 505.5625 231.523438 504.363281 233.078125 C 502.378906 235.65625 500.269531 235.820312 497.878906 235.054688 C 496.570312 234.632812 495.21875 234.46875 493.179688 234.207031 C 491.3125 233.96875 489.875 232.929688 488.574219 231.199219 C 486.457031 228.390625 485.050781 229.433594 484.0625 230.542969 C 481.855469 233.011719 479.5 235.515625 477.953125 238.246094 C 476.957031 240.007812 476.097656 241.132812 476.730469 245.390625 C 477.152344 248.242188 476.574219 250.441406 476.070312 252.53125 C 475.722656 253.988281 474.515625 254.949219 473.722656 256.007812 C 472.035156 258.257812 470.277344 258.257812 468.175781 256.757812 C 467.125 256.007812 465.691406 256.136719 464.136719 255.632812 C 460.84375 254.5625 459.453125 251.878906 458.027344 249.617188 C 456.570312 247.316406 456.109375 240.183594 459.246094 237.777344 L 462.066406 235.617188 C 463.921875 234.300781 464.21875 233.289062 464.324219 230.917969 L 463.570312 225 C 463.320312 223.015625 462.359375 221.78125 459.339844 219.171875 C 458.34375 218.308594 457.816406 216.765625 456.523438 215.976562 C 454.605469 214.808594 452.625 213.695312 450.976562 212.03125 C 450.058594 211.105469 448.847656 210.113281 447.214844 209.398438 C 444.070312 208.027344 444.226562 206.488281 444.019531 203.761719 L 444.019531 193.707031 C 444.019531 191.820312 443.914062 189.855469 445.242188 188.257812 C 446.074219 187.257812 446.003906 185.589844 447.214844 184.027344 C 449.136719 181.558594 449.9375 180.289062 451.070312 179.707031 C 452.777344 178.828125 453.964844 178.476562 454.921875 177.640625 C 456.363281 176.378906 457.335938 175.96875 458.027344 175.664062 C 460.015625 174.792969 461.277344 173.625 462.160156 172.847656 C 464.933594 170.402344 467.328125 167.996094 469.304688 165.515625 C 472.109375 162 473.546875 156.371094 470.054688 153.769531 C 467.628906 151.964844 466.128906 150.046875 465.542969 147.757812 C 465 145.617188 464.023438 143.292969 467.425781 140.238281 C 470.230469 137.722656 477.472656 137.351562 481.335938 139.207031 C 483.550781 140.269531 482.113281 143.292969 488.195312 142.683594 C 492.128906 142.289062 496.488281 142.617188 499.664062 142.496094 C 506.308594 142.238281 509.28125 137.691406 510.191406 133.472656 L 510.472656 119.660156 C 510.519531 117.457031 510.859375 115.796875 509.15625 115.714844 C 504.6875 115.5 508.265625 108.734375 509.34375 107.820312 C 511.234375 106.226562 511.96875 105.390625 513.011719 104.71875 C 514.589844 103.703125 516.277344 101.789062 516.207031 98.707031 L 515.925781 86.398438 C 515.871094 84.128906 515.714844 82.902344 514.328125 82.355469 C 511.898438 81.398438 512.976562 79.578125 514.515625 78.597656 C 516.289062 77.464844 515.992188 76.265625 516.019531 74.933594 L 516.300781 60.273438 C 516.339844 58.203125 516.664062 56.359375 517.992188 54.730469 C 519.074219 53.40625 519.179688 50.652344 518.460938 48.527344 C 518.035156 47.269531 517.28125 46.007812 517.054688 44.488281 C 516.820312 42.941406 515.554688 41.039062 512.824219 38.472656 C 510.480469 36.273438 508.386719 33.972656 508.21875 32.273438 C 508.078125 30.886719 506.308594 30.066406 505.492188 28.699219 C 503.105469 24.714844 504.144531 19.402344 506.242188 16.671875 L 509.910156 13.855469 C 511.847656 12.363281 512.429688 12.191406 512.445312 10.941406 L 512.539062 4.363281 Z M 512.542969 4.363281 "/>
<path style=" stroke:none;fill-rule:nonzero;fill:rgb(93.72549%,91.372549%,47.45098%);fill-opacity:1;" d="M 500.980469 258.074219 C 500.449219 252.203125 507.539062 250.464844 510.191406 253.941406 C 513.503906 258.28125 518.039062 258 520.53125 256.195312 C 523.917969 253.738281 526.25 253.128906 526.265625 258.074219 C 526.277344 262.265625 526.527344 263.800781 526.640625 265.214844 C 526.796875 267.195312 526.613281 269.367188 527.296875 271.230469 C 527.851562 272.738281 529.363281 272.925781 529.742188 277.714844 C 529.925781 280.023438 529.660156 284.429688 529.460938 286.734375 C 529.144531 290.359375 529.605469 292.554688 530.398438 294.066406 C 531.269531 295.714844 532.359375 298.148438 533.3125 298.855469 C 535.871094 300.757812 537.996094 303.703125 539.515625 305.8125 C 541.132812 308.046875 542.960938 310.175781 544.59375 311.636719 C 548.179688 314.855469 551.085938 319.140625 553.238281 322.535156 C 556.210938 327.21875 558.382812 332.882812 563.765625 337.851562 C 566.933594 340.777344 569.769531 347.914062 571.664062 354.296875 C 573.152344 359.320312 575.226562 364.570312 572.226562 373.089844 C 571.585938 374.910156 571.332031 377.636719 571.285156 378.542969 C 571.0625 382.847656 569.671875 387.25 569.21875 390.003906 C 568.933594 391.742188 565.320312 397.242188 563.765625 398.460938 C 558.066406 402.949219 553.894531 415.960938 557.75 426.277344 C 558.609375 428.566406 559.914062 432.035156 561.511719 433.886719 C 563.792969 436.527344 563.410156 440.367188 559.820312 439.527344 C 558.808594 439.289062 557.792969 439.164062 557 438.492188 C 555.441406 437.167969 551.160156 436.71875 548.445312 438.210938 C 545.644531 439.75 541.617188 443.308594 538.765625 445.914062 C 536.890625 447.628906 535.457031 451.101562 535.570312 453.339844 C 535.777344 457.460938 536.15625 461.878906 536.699219 465.742188 C 537.125 468.804688 538.738281 472.546875 540.644531 474.953125 C 543.65625 478.746094 546.054688 484.960938 547.414062 489.609375 C 548.113281 492.015625 548.164062 495.464844 548.820312 497.878906 C 549.402344 500.019531 550.367188 502.964844 550.421875 505.398438 C 550.484375 508.367188 550.347656 512.160156 550.230469 514.605469 C 550.058594 518.226562 549.058594 522.410156 547.414062 524.378906 C 543.425781 529.136719 543.964844 531.519531 543.277344 533.585938 C 537.601562 529.714844 530.832031 529.574219 528.40625 534.304688 C 526.796875 537.453125 525.476562 540.695312 518.8125 534.691406 C 515.277344 531.507812 511.917969 528.386719 508.765625 524.929688 C 499.15625 514.390625 492.074219 524.394531 486.429688 530.898438 C 484.632812 532.96875 481.886719 534.414062 479.503906 536.085938 C 475.796875 538.6875 471.25 538.167969 466.101562 536.699219 C 465.414062 533.042969 464.742188 529.496094 461.460938 526.632812 C 459.164062 524.625 457.964844 522.367188 457.949219 514.414062 C 457.9375 510.320312 458.304688 507.050781 464.851562 506.34375 C 467.550781 506.050781 476.191406 503.300781 475.164062 494.339844 C 474.691406 490.234375 475.691406 488.46875 480.007812 482.3125 C 476.003906 480.101562 472.710938 475.144531 473.191406 470.765625 C 473.523438 467.742188 473.207031 465.464844 477.949219 461.890625 C 484.542969 456.917969 481.59375 453.378906 473.675781 447.457031 C 470.875 445.359375 466.746094 443.570312 464.015625 440.363281 C 464.5 439.039062 464.734375 438.082031 464.699219 437.082031 C 464.582031 433.519531 466.390625 430.113281 468.835938 426.839844 C 471.542969 423.214844 474.714844 414.191406 474.472656 411.523438 C 474.078125 407.09375 473.863281 403.164062 475.789062 400.53125 C 477.074219 398.773438 477.695312 395.746094 477.859375 393.574219 C 478.160156 389.507812 477.859375 379.539062 477.859375 374.59375 C 477.859375 372.558594 477.929688 369.496094 476.355469 368.203125 C 474.734375 366.878906 473.8125 364.136719 473.910156 362.003906 C 473.996094 360.144531 473.742188 357.628906 474.097656 355.800781 C 474.84375 351.976562 471.695312 348.15625 471.558594 355.613281 C 471.53125 357.417969 471.097656 358.324219 470.621094 359.371094 C 467.007812 367.296875 458.605469 363.53125 458.871094 359.183594 C 459.109375 355.304688 462.605469 352.035156 464.699219 350.539062 C 466.859375 348.996094 470.144531 343.929688 470.339844 339.355469 C 470.445312 336.878906 470.792969 333.257812 470.714844 331.183594 C 470.628906 328.953125 470.277344 326.332031 467.988281 324.605469 C 466.398438 323.40625 464.777344 321.417969 464.136719 320.28125 C 463.355469 318.90625 462.296875 317.023438 461.128906 315.960938 C 456.84375 312.0625 460.480469 309.890625 463.007812 308.628906 C 464.253906 308.007812 466.164062 307.699219 467.332031 306.9375 C 473.453125 302.941406 474.984375 298.949219 476.070312 294.910156 C 476.507812 293.296875 475.933594 280.855469 475.976562 279.5 C 476.066406 276.902344 477.390625 271.117188 479.738281 271.886719 C 481.28125 272.394531 483.472656 271.488281 484.625 270.855469 C 489.675781 268.074219 491.609375 272.644531 492.898438 276.398438 C 493.367188 277.765625 492.613281 282.800781 492.898438 285.703125 C 493.160156 288.378906 495.273438 290.460938 496.84375 292.183594 C 498.382812 293.871094 502.050781 295.59375 503.988281 289.835938 C 505.121094 286.464844 508.902344 283.433594 513.386719 287.863281 C 515.625 290.070312 516.589844 290.574219 519.402344 286.171875 C 520.660156 284.207031 519.613281 275.460938 519.683594 271.417969 C 519.789062 265.359375 515.96875 265.609375 512.636719 269.539062 C 511.203125 271.230469 506.136719 277.277344 497.785156 273.863281 C 494.476562 272.507812 497.695312 266.777344 499.101562 264.277344 C 499.894531 262.863281 501.203125 260.550781 500.980469 258.074219 Z M 500.980469 258.074219 "/>
<path style=" stroke:none;fill-rule:nonzero;fill:rgb(52.941176%,93.72549%,47.45098%);fill-opacity:1;" d="M 466.101562 536.699219 C 464.269531 533.402344 455.613281 534.03125 452.808594 542.269531 C 450.355469 549.464844 447.820312 553.421875 442.46875 553.167969 C 438.894531 555.382812 436.417969 558.890625 433.140625 561.492188 C 427.3125 566.125 426.628906 576.046875 437.710938 576.816406 C 442.5 577.152344 442.253906 582.890625 441.773438 587.046875 C 441.121094 592.652344 442.714844 595.566406 445.390625 597.714844 C 448.125 599.910156 450.589844 602.390625 453.871094 605.253906 C 457.027344 608.007812 461.070312 609.660156 466.285156 610.945312 C 468.273438 612.132812 470.261719 612.59375 471.636719 613.957031 C 476.496094 618.789062 471.871094 624.84375 467.601562 625.429688 C 463.960938 625.929688 461.300781 629.867188 461.664062 631.527344 C 463.308594 631.691406 464.679688 631.679688 465.585938 632.554688 C 468.375 635.253906 467.804688 637.480469 467.816406 638.980469 C 467.84375 642.882812 470.960938 646.042969 475.300781 646.140625 C 475.058594 644.160156 475.53125 641.898438 475.882812 640.710938 C 476.851562 637.4375 479.320312 635.4375 481.523438 634.226562 C 484.132812 632.792969 488.230469 633.148438 491.203125 633.003906 C 495.335938 632.808594 496.371094 634.988281 496.84375 637.515625 C 498.152344 644.476562 510.335938 638.191406 502.109375 628.117188 C 500.988281 626.746094 499.511719 623.820312 499.289062 620.976562 C 498.96875 616.882812 499.082031 613.210938 503.234375 611.296875 C 504.726562 610.613281 506.820312 609.816406 508.3125 609.136719 C 514.542969 606.292969 523.660156 608.710938 517.242188 615.902344 C 516.21875 617.046875 513.59375 619.726562 512.449219 620.882812 C 510.507812 622.835938 508.417969 621.316406 508.40625 629.714844 C 508.40625 633.15625 508.304688 637.839844 508.5 641.273438 C 508.578125 642.640625 509.21875 644.890625 509.816406 646.253906 C 510.46875 647.753906 510.574219 649.421875 510.378906 651.046875 C 509.957031 654.578125 512.070312 655.863281 514.328125 655.558594 C 517.289062 655.152344 519.90625 652.847656 520.53125 649.917969 C 520.78125 648.75 520.992188 645.960938 524.949219 643.625 C 526.882812 642.480469 529.480469 639.695312 531.996094 638.644531 C 535.136719 637.328125 537.523438 635.582031 536.886719 628.023438 C 536.566406 624.265625 537.4375 619.40625 537.355469 616.371094 C 537.234375 611.996094 536.683594 606.59375 542.902344 604.0625 C 545.167969 603.140625 547.554688 601.355469 549.761719 600.304688 C 556.066406 597.308594 552.996094 594.191406 550.421875 591.660156 C 548.371094 589.644531 545.339844 586.507812 543.464844 584.328125 C 539.386719 579.59375 536.765625 572.3125 536.792969 566.101562 C 536.804688 562.433594 536.824219 557.359375 536.699219 553.695312 C 536.589844 550.597656 537.546875 546.464844 538.953125 543.546875 C 540.367188 540.621094 542.105469 537.109375 543.277344 533.585938 C 537.601562 529.714844 530.832031 529.574219 528.410156 534.304688 C 526.796875 537.453125 525.480469 540.695312 518.8125 534.691406 C 515.277344 531.507812 511.917969 528.386719 508.765625 524.929688 C 499.15625 514.390625 492.074219 524.394531 486.429688 530.898438 C 484.632812 532.96875 481.886719 534.414062 479.503906 536.085938 C 475.796875 538.6875 471.25 538.167969 466.101562 536.699219 Z M 466.101562 536.699219 "/>
<path style=" stroke:none;fill-rule:nonzero;fill:rgb(47.45098%,93.72549%,85.882353%);fill-opacity:1;" d="M 475.300781 646.140625 C 470.960938 646.046875 467.84375 642.882812 467.816406 638.980469 C 467.804688 637.480469 468.375 635.253906 465.585938 632.554688 C 464.679688 631.679688 463.308594 631.691406 461.664062 631.527344 C 461.300781 629.867188 463.960938 625.929688 467.601562 625.429688 C 471.871094 624.84375 476.496094 618.789062 471.636719 613.957031 C 470.261719 612.59375 468.273438 612.132812 466.285156 610.945312 C 461.070312 609.660156 457.027344 608.007812 453.871094 605.253906 C 450.589844 602.390625 448.125 599.910156 445.390625 597.714844 C 442.714844 595.566406 441.121094 592.652344 441.773438 587.046875 C 442.253906 582.890625 442.5 577.152344 437.710938 576.816406 C 426.628906 576.046875 427.3125 566.125 433.140625 561.492188 C 436.417969 558.890625 438.894531 555.382812 442.46875 553.167969 C 447.820312 553.421875 450.355469 549.464844 452.808594 542.269531 C 455.613281 534.03125 464.269531 533.402344 466.101562 536.699219 C 465.414062 533.042969 464.742188 529.496094 461.460938 526.632812 C 459.164062 524.625 457.964844 522.367188 457.949219 514.414062 C 457.9375 510.320312 458.308594 507.054688 464.851562 506.34375 C 467.550781 506.050781 476.191406 503.300781 475.164062 494.339844 C 474.691406 490.234375 475.691406 488.46875 480.007812 482.3125 C 476.003906 480.101562 472.710938 475.144531 473.191406 470.765625 C 473.523438 467.742188 473.207031 465.464844 477.949219 461.890625 C 484.542969 456.917969 481.59375 453.378906 473.675781 447.457031 C 470.875 445.359375 466.746094 443.570312 464.015625 440.363281 C 463.425781 441.96875 462.671875 443.574219 461.785156 444.695312 C 460.796875 445.945312 461.214844 453.214844 461.128906 456.722656 C 460.910156 465.308594 454.257812 475.824219 447.214844 479.273438 C 444.234375 480.734375 434.515625 489.769531 433.679688 496.46875 C 433.464844 498.222656 432.273438 501.527344 430.109375 504.644531 C 428.582031 506.847656 427.5625 511.125 426.914062 513.101562 C 426.136719 515.480469 425.179688 518.296875 423.625 520.148438 C 421.957031 522.136719 419.859375 525.191406 417.703125 526.632812 C 416.082031 527.71875 413.914062 529.308594 412.4375 530.769531 C 411.089844 532.101562 409.097656 533.765625 407.363281 534.527344 C 405.632812 535.289062 403.722656 536.640625 402.664062 537.816406 C 401.25 539.382812 398.4375 540.214844 396.648438 541.855469 C 394.378906 543.941406 392.285156 544.277344 387.71875 545.804688 C 385.484375 546.550781 381.640625 545.921875 379.824219 547.304688 C 378.808594 548.082031 377.195312 550.128906 375.96875 550.5 C 375.261719 550.714844 373.796875 552.285156 373.808594 554.167969 C 373.824219 557.351562 370.882812 561.203125 365.441406 560.460938 C 359.46875 559.648438 355.285156 549.816406 356.984375 548.058594 C 359.410156 545.542969 358.3125 543.628906 354.726562 542.796875 C 350.789062 541.878906 353.292969 537.671875 356.042969 536.21875 C 358.652344 534.839844 363.359375 532.097656 365.253906 528.890625 C 365.773438 528.015625 367.34375 525.347656 368.167969 524.753906 C 369.128906 524.066406 370.726562 518.464844 369.203125 516.296875 C 366.871094 512.980469 359.929688 515.3125 358.300781 518.363281 C 357.371094 520.101562 356.054688 522.742188 349.089844 523.4375 C 347.160156 523.632812 343.164062 526.40625 341.945312 528.136719 C 341.046875 529.414062 339.671875 530.988281 338.5625 532.082031 C 334.546875 536.050781 337.214844 541.066406 339.3125 545.050781 C 341.023438 548.300781 343.195312 565.230469 339.03125 571.363281 C 337.992188 572.890625 336.867188 575.46875 335.835938 577 C 332.507812 581.949219 327.59375 588.148438 324.085938 592.972656 C 322.257812 595.492188 319.367188 598.601562 318.070312 601.429688 C 316.589844 604.65625 314.191406 607.253906 312.148438 609.417969 C 308.699219 613.082031 310.835938 616.65625 314.5 620.789062 C 316.21875 622.726562 321.644531 630.382812 311.960938 635.636719 C 310.511719 636.421875 307.078125 635.839844 305.757812 639.957031 C 305.269531 641.476562 303.617188 643.035156 302.28125 643.90625 C 300.960938 644.761719 299.125 644.945312 297.390625 645.785156 C 296.175781 646.371094 294.261719 647.175781 292.46875 646.027344 C 291.339844 650.589844 297.777344 655.097656 305.441406 653.441406 C 308.375 651.222656 310.089844 650.125 311.464844 648.453125 C 312.613281 647.058594 313.859375 646.664062 314.941406 646.023438 C 316.277344 645.230469 317.351562 644.976562 318.425781 643.640625 C 321.347656 640.03125 322.859375 639.476562 324.394531 637.886719 C 326.550781 635.652344 327.199219 634.589844 328.519531 632.652344 C 330.21875 635.3125 332.898438 639.011719 334.347656 643.761719 C 335.449219 647.367188 337.226562 647.132812 337.722656 649.613281 C 339.726562 659.632812 341.496094 663.390625 351.625 662.425781 C 353.097656 667.101562 356.503906 667.292969 357.640625 670.875 C 362.589844 669.296875 363.480469 668.246094 363 674.914062 C 362.847656 677.03125 363.207031 680.058594 364.316406 681.867188 C 368.539062 688.761719 368.199219 685.390625 375.40625 682.996094 C 376.613281 682.59375 378.273438 682.167969 379.542969 682.054688 C 388.324219 681.265625 383.859375 686.40625 381.796875 687.695312 C 368.289062 696.128906 377.636719 693.355469 383.675781 691.078125 C 387.433594 689.660156 398.492188 687.328125 399.5625 687.128906 C 407.59375 685.628906 421.230469 687.261719 429.359375 686.191406 C 432.546875 685.769531 434.890625 687.625 435.75 680.457031 C 435.882812 679.335938 435.503906 676.570312 439.226562 673.035156 C 441.0625 671.292969 442.234375 667.726562 442.328125 663.449219 C 442.382812 660.929688 444.4375 657.996094 446.652344 657.25 C 448.242188 656.710938 450.523438 654.824219 453.703125 653.394531 C 456.90625 651.957031 461.480469 651.53125 461.128906 658.75 C 461.019531 660.941406 461.15625 666.699219 460.9375 670.402344 C 460.605469 676.046875 466.386719 684.089844 468.835938 677.734375 C 469.433594 676.175781 467.855469 674.777344 472.03125 672.28125 C 473.46875 671.421875 474.519531 669.253906 475.976562 668.429688 C 477.730469 667.441406 479.496094 665.339844 479.171875 661.757812 C 478.972656 659.511719 479.054688 656.492188 479.171875 654.242188 C 479.289062 652.039062 477.894531 650.351562 476.449219 648.886719 C 475.769531 648.195312 475.429688 647.210938 475.300781 646.140625 Z M 475.300781 646.140625 "/>
<path style=" stroke:none;fill-rule:nonzero;fill:rgb(58.431373%,47.45098%,93.72549%);fill-opacity:1;" d="M 292.46875 646.027344 C 291.339844 650.589844 297.777344 655.097656 305.441406 653.441406 C 308.375 651.222656 310.089844 650.125 311.46875 648.453125 C 312.613281 647.058594 313.859375 646.667969 314.941406 646.023438 C 316.277344 645.230469 317.351562 644.976562 318.425781 643.640625 C 321.347656 640.03125 322.859375 639.476562 324.394531 637.886719 C 326.550781 635.652344 327.199219 634.589844 328.519531 632.652344 C 330.21875 635.3125 332.898438 639.011719 334.347656 643.761719 C 335.449219 647.371094 337.226562 647.132812 337.722656 649.613281 C 339.726562 659.632812 341.496094 663.390625 351.625 662.425781 C 353.097656 667.101562 356.503906 667.292969 357.640625 670.875 C 356.332031 671.289062 352.148438 673.835938 351.34375 675.289062 C 350.253906 677.253906 348.320312 680.765625 347.394531 682.523438 C 346.175781 684.847656 345.007812 687.441406 347.773438 689.101562 C 349.292969 690.019531 352.808594 691.976562 354.257812 693.425781 C 355.53125 694.703125 358.386719 695.902344 360.179688 696.808594 C 364.230469 698.859375 379.457031 707.578125 365.253906 713.816406 C 364.214844 714.273438 361.71875 713.347656 359.710938 714.191406 C 356.328125 715.613281 350.609375 716.363281 347.207031 718.515625 C 343.769531 720.6875 339.953125 720.769531 340.441406 726.972656 C 340.910156 732.925781 338.886719 733.914062 333.863281 738.058594 C 327.132812 743.609375 327.335938 741.582031 327.375 751.027344 C 327.398438 756.171875 328.425781 760.734375 324.648438 761.644531 C 321.78125 762.339844 319.851562 764.921875 319.292969 765.40625 C 317.90625 766.605469 316.757812 768.917969 313.652344 768.503906 C 313.007812 768.421875 311.765625 767.359375 310.550781 767.378906 C 309.265625 767.394531 308.035156 766.867188 306.414062 765.5 C 304.621094 763.980469 301.976562 762.421875 299.648438 762.117188 C 298.816406 762.003906 297.824219 761.777344 294.289062 759.296875 C 293.558594 758.785156 292.585938 756.96875 291.847656 756.195312 C 290.605469 754.902344 289.082031 753.75 288.746094 752.15625 C 288.265625 749.894531 286.367188 747.621094 283.667969 747.082031 C 281.273438 746.601562 278.828125 742.570312 279.722656 739 C 280.429688 736.171875 280.164062 732.132812 279.722656 730.167969 C 278.03125 722.667969 278.800781 721.121094 282.164062 719.359375 C 283.757812 718.527344 286.375 716.605469 287.335938 715.226562 C 288.167969 714.03125 289.074219 712.480469 290.25 711.46875 C 292.238281 709.75 293.554688 707.320312 293.351562 704.703125 C 293.125 701.789062 293.886719 697.59375 288.464844 698.40625 C 285.367188 698.867188 280.582031 701.347656 274.269531 699.15625 C 271.714844 698.269531 268.136719 697.558594 265.058594 697.84375 C 261.113281 698.203125 257.59375 696.710938 253.6875 696.054688 C 247.929688 695.089844 240.714844 695.054688 238.835938 697.183594 C 233.1875 690.417969 229.664062 676.0625 237.539062 669.296875 C 246.289062 661.777344 247.949219 655.351562 236.671875 642.683594 C 239.582031 640.964844 238.910156 639.851562 244.664062 639.675781 C 250.359375 639.5 252.878906 641.410156 256.601562 641.648438 C 262.859375 642.054688 262.78125 640.65625 265.8125 638.644531 C 267.042969 637.824219 268.152344 635.902344 269.007812 634.695312 C 271.042969 631.816406 272.574219 630.246094 274.644531 630.5625 C 277.847656 631.046875 278.355469 632.851562 278.21875 635.070312 C 278.046875 637.820312 277.410156 640.46875 277.652344 641.835938 C 278.90625 648.828125 282.457031 649.902344 283.667969 645.785156 C 284.730469 642.183594 288.964844 640.144531 290.15625 642.871094 C 290.699219 644.121094 291.589844 645.460938 292.46875 646.027344 Z M 292.46875 646.027344 "/>
<path style=" stroke:none;fill-rule:nonzero;fill:rgb(93.72549%,69.411765%,47.45098%);fill-opacity:1;" d="M 238.835938 697.183594 C 233.1875 690.417969 229.664062 676.0625 237.539062 669.296875 C 246.289062 661.777344 247.949219 655.351562 236.671875 642.683594 C 234.410156 644.019531 231.203125 646.242188 228.589844 646.535156 C 224.089844 647.039062 222.214844 649.542969 219.566406 650.480469 C 217.363281 651.265625 214.46875 652.214844 212.140625 652.457031 C 209.371094 652.742188 203.9375 652.78125 200.296875 652.457031 C 191.949219 651.710938 191.179688 656.28125 185.824219 656.964844 C 183.699219 657.238281 180.335938 656.796875 178.210938 657.058594 C 175.789062 657.359375 173.148438 655.035156 174.824219 653.394531 C 176.335938 651.917969 176.457031 649.65625 171.628906 649.730469 C 169.105469 649.769531 166.601562 650.132812 165.519531 652.078125 C 164.613281 653.714844 161.386719 655.613281 158.566406 657.246094 C 154.621094 659.53125 150.890625 663.292969 150.480469 665.234375 C 150.027344 667.402344 147.683594 669.945312 145.875 671.71875 C 141.039062 676.46875 133.90625 681.96875 129.238281 687.695312 C 126.867188 690.605469 125.074219 693.527344 120.875 697.089844 C 118.042969 699.492188 115.308594 703.132812 113.167969 705.921875 C 108.734375 711.695312 106.445312 712.964844 103.109375 712.5 C 99.304688 711.96875 95.113281 716.9375 93.429688 720.394531 C 92.210938 722.894531 90.917969 726.429688 86.472656 727.722656 C 84.367188 728.335938 81.59375 728.089844 79.140625 730.074219 C 78.207031 730.828125 75.351562 730.714844 73.691406 730.542969 C 69.117188 730.070312 68.058594 733.085938 67.863281 735.242188 C 67.609375 738.050781 67.976562 742.429688 67.015625 744.917969 C 66.148438 747.171875 67.40625 748.636719 69.179688 748.394531 C 69.8125 748.308594 71.523438 749.664062 71.808594 750.085938 C 72.527344 751.148438 73.910156 751.785156 75.195312 751.027344 C 78.261719 749.214844 78.4375 752.296875 79.140625 753.46875 C 79.503906 754.078125 79.988281 754.890625 80.269531 755.539062 C 81.804688 759.046875 85.03125 758.511719 87.226562 757.230469 C 88.164062 756.679688 89.148438 754.933594 91.546875 753.847656 C 92.839844 753.261719 94.226562 752.074219 95.121094 751.027344 C 96.921875 748.925781 104.921875 747.714844 112.601562 750.371094 C 113.425781 750.65625 115.5625 751.949219 116.738281 752.53125 C 118.570312 753.4375 119.996094 755.023438 120.6875 755.914062 C 121.59375 757.082031 123.078125 758.542969 124.445312 759.109375 C 125.3125 759.46875 126.199219 759.5625 127.078125 760.613281 C 130.339844 764.519531 129.488281 757.882812 129.804688 756.101562 C 130.121094 754.300781 129.777344 748.5 132.246094 746.328125 C 133.058594 745.613281 135.617188 739.175781 134.410156 735.992188 C 131.730469 728.949219 144.019531 725.085938 148.132812 732.984375 C 151.121094 738.726562 157.433594 736.632812 159.410156 733.265625 C 160.8125 730.882812 166.589844 728.59375 169.9375 728.289062 C 173.316406 727.976562 177.332031 726.730469 179.902344 722.929688 C 180.9375 721.402344 186.671875 717.699219 189.675781 720.019531 C 192.199219 721.964844 195.261719 721.296875 195.128906 718.140625 C 195.039062 716.082031 198.492188 714.03125 200.957031 714.566406 C 203.867188 715.199219 205.515625 714.703125 206.40625 713.253906 C 207.746094 711.082031 211.03125 712.804688 212.234375 714.378906 C 213.679688 716.273438 220.953125 715.050781 221.824219 711.375 C 222.058594 710.371094 223.226562 707.730469 229.152344 705.078125 C 231.324219 704.105469 236.222656 700.144531 238.835938 697.183594 Z M 238.835938 697.183594 "/>
<path style=" stroke:none;fill-rule:evenodd;fill:rgb(67.058824%,56.862745%,100%);fill-opacity:1;" d="M 258.667969 719.640625 C 258.472656 716.675781 259.441406 715.535156 260.265625 713.910156 C 261.148438 712.171875 262.449219 711.582031 262.992188 710.996094 C 263.6875 710.242188 264.875 708.980469 265.339844 707.894531 C 265.8125 706.796875 267.894531 706.21875 268.347656 704.984375 C 268.785156 703.796875 270.445312 703.304688 271.828125 703.761719 C 273.921875 704.453125 274.789062 706.339844 274.175781 708.273438 C 273.902344 709.140625 273.714844 710.699219 273.425781 711.5625 C 272.992188 712.828125 272.382812 713.890625 271.449219 714.851562 C 269.15625 717.214844 269.449219 719.332031 269.476562 719.734375 C 269.972656 727.117188 263.492188 727.566406 260.828125 724.527344 C 259.820312 723.375 258.914062 723.417969 258.667969 719.640625 Z M 258.667969 719.640625 "/>
<path style=" stroke:none;fill-rule:evenodd;fill:rgb(80%,47.45098%,93.72549%);fill-opacity:1;" d="M 225.769531 721.523438 C 226.914062 722.390625 229.742188 723.703125 230.46875 722.460938 C 231.359375 720.941406 233.019531 720.789062 234.980469 721.710938 C 236.039062 722.203125 236.960938 723.484375 238.929688 723.589844 C 242.945312 723.800781 243.171875 725.847656 243.253906 726.125 C 243.703125 727.652344 248.050781 728.117188 249.550781 727.816406 C 253.992188 726.925781 254.339844 728.59375 254.15625 730.167969 C 253.757812 733.566406 255.785156 738.007812 257.632812 738.53125 C 259.582031 739.082031 260.351562 741.929688 260.734375 745.390625 C 261.074219 748.46875 259.242188 751.4375 257.351562 752.71875 C 251.714844 756.542969 244.859375 763.03125 241.089844 768.410156 C 240.207031 769.671875 239.480469 772.632812 238.082031 774.988281 C 236.777344 777.191406 236.230469 779.441406 235.546875 781.660156 C 234.71875 784.335938 233.132812 786.867188 229.90625 783.351562 C 228.539062 781.863281 225.996094 781.140625 224.078125 778.089844 C 223.160156 776.628906 220.949219 775.269531 219.566406 774.238281 C 217.242188 772.5 214.535156 771.300781 210.167969 771.511719 C 207.628906 771.636719 203.761719 770.769531 201.988281 774.707031 C 201.316406 776.207031 198.953125 778.601562 196.726562 779.5 C 192.488281 781.210938 188.152344 782.917969 187.984375 789.085938 C 187.863281 793.558594 186.566406 795.539062 184.882812 798.105469 C 183.484375 800.238281 181.726562 803.292969 179.527344 805.152344 C 176.535156 807.679688 173.816406 810.945312 176.328125 813.421875 C 177.972656 815.035156 179.351562 819.964844 174.449219 819.058594 C 172.171875 818.636719 168.738281 819.160156 166.929688 821.125 C 164.566406 823.703125 161.410156 824.910156 159.222656 821.125 C 157.796875 818.664062 155.636719 815.535156 153.960938 813.234375 C 151.84375 810.328125 148.785156 809.445312 146.253906 814.171875 C 144.816406 816.859375 138.429688 824.964844 144.371094 813.234375 C 145.570312 810.871094 147.625 808.238281 148.039062 805.621094 C 148.601562 802.074219 149.125 799.035156 150.480469 797.824219 C 152.332031 796.167969 152.449219 794.195312 151.328125 793.3125 C 150 792.265625 149.261719 789.203125 148.226562 787.863281 C 143.761719 782.085938 139.867188 784.449219 134.410156 784.480469 C 122.28125 784.546875 128.207031 783.203125 134.410156 782.222656 C 142.105469 781.007812 144.933594 775.757812 149.261719 771.980469 C 150.492188 770.90625 152.066406 769.125 153.488281 768.316406 C 156.457031 766.632812 157.195312 765.125 157.4375 762.773438 C 157.644531 760.742188 158.570312 758.449219 159.789062 757.417969 C 162.0625 755.484375 161.84375 752.859375 161.855469 752.25 C 161.921875 748.28125 164.269531 745.050781 166.742188 742.757812 C 172.300781 737.605469 174.796875 741.476562 177.832031 745.390625 C 180.019531 748.207031 182.707031 752.078125 185.730469 748.207031 C 187.730469 745.648438 192.019531 745.367188 193.4375 745.578125 C 199.253906 746.433594 204.246094 741.445312 204.339844 738.152344 C 204.46875 733.5625 203.90625 731.359375 209.792969 728.003906 C 211.800781 726.859375 214.292969 724.78125 215.996094 723.214844 C 218.972656 720.464844 222.867188 719.316406 225.769531 721.523438 Z M 225.769531 721.523438 "/>
<path style=" stroke:none;fill-rule:evenodd;fill:rgb(70.588235%,70.588235%,70.588235%);fill-opacity:1;" d="M 71.058594 753.660156 C 71.320312 753.398438 74.714844 761.730469 76.699219 765.308594 C 79.632812 770.613281 85.976562 775.203125 90.140625 775.742188 C 94.984375 776.367188 97.722656 774.84375 98.503906 773.957031 C 105.039062 766.523438 116.980469 776.519531 109.03125 785.230469 C 106.105469 788.4375 104.351562 794.078125 112.695312 793.78125 C 117.484375 793.613281 118.53125 797.816406 119.933594 799.890625 C 121.8125 802.664062 123.734375 806.90625 125.761719 809.285156 C 128.53125 812.539062 128.382812 817.414062 125.386719 820.5625 C 122.714844 823.367188 122.726562 824.785156 122.566406 826.859375 C 122.289062 830.464844 118.988281 833.785156 117.398438 835.222656 C 111.933594 840.160156 111.742188 849.347656 111.664062 851.855469 C 111.46875 858.121094 109.792969 859.078125 108.46875 861.910156 C 105.554688 868.132812 106.136719 871.605469 105.835938 875.253906 C 105.273438 881.996094 106.230469 891.148438 105.742188 897.898438 C 105.539062 900.691406 104.949219 904.851562 103.769531 907.390625 C 101.324219 912.652344 96.949219 911.761719 95.496094 908.703125 C 94.367188 906.328125 90.484375 903.253906 88.351562 908.988281 C 87.523438 911.214844 87.582031 914.144531 87.414062 916.222656 C 87.082031 920.304688 86.035156 921.777344 83.652344 922.988281 C 77.8125 925.953125 75.941406 928.664062 74.535156 929.378906 C 67.160156 933.117188 60.703125 930.328125 69.929688 921.671875 C 74.917969 916.996094 73.199219 912.027344 69.367188 908.890625 C 64.902344 905.238281 64.902344 907.558594 64.761719 900.71875 C 64.675781 896.589844 65.558594 895.949219 67.863281 896.113281 C 71.929688 896.398438 71.34375 891.457031 65.984375 894.234375 C 63.898438 895.3125 61.445312 897.304688 59.589844 898.742188 C 52.914062 903.933594 58.425781 909.121094 60.8125 911.898438 C 62.8125 914.222656 67.582031 918.082031 62.976562 924.492188 C 61.972656 925.886719 58.359375 925.523438 56.207031 925.054688 C 53.414062 924.445312 48.695312 923.066406 46.996094 923.269531 C 40.40625 924.054688 36.257812 914.738281 42.859375 909.832031 C 47.609375 906.304688 46.910156 895.886719 42.296875 894.046875 C 36.996094 891.929688 35.3125 879.050781 37.03125 876.378906 C 41.808594 868.972656 46.441406 863.019531 50.378906 858.902344 C 52.25 856.945312 54.558594 853.992188 54.703125 851.289062 C 55.09375 843.925781 54.867188 840.167969 53.667969 839.921875 C 51.96875 839.566406 48.933594 838.921875 53.292969 836.726562 C 54.453125 836.140625 59.035156 827.78125 53.953125 822.066406 C 50.925781 818.667969 47.59375 813.347656 45.867188 809.664062 C 43.5 804.605469 35.632812 801.730469 34.402344 809.285156 C 34.046875 811.46875 33.773438 819.984375 33.835938 821.125 C 34.140625 826.597656 37.417969 824.375 39.101562 823.945312 C 47.578125 821.792969 49.339844 828.5 45.773438 831.933594 C 44.140625 833.507812 42.824219 835.554688 41.355469 836.914062 C 36.933594 841.015625 33.136719 839.925781 34.589844 834.28125 C 35.859375 829.351562 33.773438 825.097656 27.257812 831.277344 C 25.023438 833.390625 21.851562 836.320312 19.832031 837.851562 C 15.742188 840.957031 11.371094 841.464844 14.003906 836.632812 C 16.054688 832.875 11.664062 828.332031 9.210938 826.578125 C 6.417969 824.578125 5.351562 816.5 7.519531 814.925781 C 8.832031 813.972656 14 816.390625 14.851562 821.316406 C 15.398438 824.472656 16.878906 825.507812 18.796875 826.199219 C 23.121094 827.761719 24.542969 824.503906 23.121094 821.503906 C 21.65625 818.402344 16.960938 813.75 14.851562 813.796875 C 11.0625 813.875 7.445312 811.28125 5.640625 807.972656 C 4.894531 806.605469 2.894531 805.578125 1.878906 804.402344 C -3.640625 798.003906 4.214844 792.503906 9.773438 794.816406 C 14.644531 796.839844 15.71875 798.070312 15.132812 791.902344 C 14.429688 784.457031 19.664062 785.589844 22.183594 785.605469 C 26.660156 785.640625 29.082031 786.429688 29.609375 781.378906 C 30.03125 777.308594 33.445312 775.144531 37.03125 777.148438 C 41.652344 779.734375 45.277344 774.617188 45.304688 771.417969 C 45.320312 769.332031 46.527344 766.871094 49.910156 763.335938 C 53.464844 759.625 57.070312 757.328125 59.96875 757.886719 C 62.921875 758.457031 63.839844 757.871094 65.136719 756.851562 C 66.050781 756.136719 67.089844 754.675781 68.238281 754.503906 C 70.039062 754.234375 71.09375 753.667969 71.058594 753.660156 Z M 71.058594 753.660156 "/>
<path style=" stroke:none;fill-rule:evenodd;fill:rgb(70.588235%,70.588235%,70.588235%);fill-opacity:1;" d="M 639.902344 820.054688 C 643.015625 808.414062 653.960938 815.683594 646.859375 823.8125 C 644.617188 826.378906 643.214844 829.4375 640.65625 830.957031 C 638.207031 832.40625 635.457031 834.96875 635.957031 836.3125 C 636.625 838.121094 635.839844 839.105469 635.015625 839.789062 C 631.195312 842.964844 632.988281 844.652344 634.734375 845.800781 C 638.375 848.203125 637.4375 850.074219 633.136719 851.628906 C 627.675781 853.597656 628.570312 856.46875 630.128906 857.832031 C 637.878906 864.605469 621.667969 874.691406 621.480469 858.957031 C 621.453125 856.5 625.84375 856.46875 622.609375 850.875 C 620.917969 847.953125 620.59375 846.25 624.769531 843.359375 C 629.8125 839.871094 629.695312 834.742188 629 833.960938 C 626.816406 831.515625 622.816406 830.421875 630.316406 829.640625 C 635.144531 829.136719 637.628906 828.554688 639.902344 820.054688 Z M 639.902344 820.054688 "/>
<path style="fill:none;stroke-width:1;stroke-linecap:butt;stroke-linejoin:miter;stroke:rgb(100%,100%,100%);stroke-opacity:1;stroke-miterlimit:4;" d="M 379.5625 323.286788 C 379.5625 323.286788 383.721875 323.224272 385.4625 323.18051 C 387.653125 323.130496 389.784375 323.665015 391.203125 324.233918 C 394.778125 325.671804 398.734375 326.98153 401.84375 328.291257 C 407.884375 330.838816 409.528125 329.125856 412.009375 327.44728 C 413.640625 326.343859 416.13125 324.609018 417.646875 325.077894 C 419.053125 325.515512 420.759375 326.44076 422.440625 326.29072 C 423.446875 326.196945 425.73125 326.978404 426.546875 327.712977 C 427.896875 328.925802 430.18125 329.472824 431.553125 330.926339 C 434.546875 334.09594 438.053125 333.508282 440.76875 332.39861 C 442.025 331.889098 445.19375 331.18891 445.19375 331.18891 " transform="matrix(1.25,0,0,1.249664,0,0)"/>
<path style=" stroke:none;fill-rule:evenodd;fill:rgb(61.568627%,95.294118%,89.411765%);fill-opacity:1;" d="M 412.4375 464.425781 C 415.207031 456.050781 424.035156 461.527344 419.769531 467.058594 C 418.9375 468.136719 418.753906 469.917969 418.265625 471.191406 C 416.34375 476.238281 418.820312 477.601562 420.242188 477.207031 C 423.953125 476.171875 424.332031 479.636719 422.308594 482.84375 C 420.550781 485.628906 416.875 488.285156 414.789062 490.832031 C 413.3125 492.632812 410.515625 495.675781 410.089844 489.984375 C 410.007812 488.90625 410.320312 487.113281 410.464844 486.039062 C 410.878906 482.949219 409.695312 481.773438 408.867188 481.527344 C 406.902344 480.945312 405.050781 477.996094 407.644531 475.234375 C 409.0625 473.722656 410.40625 474.21875 410.371094 470.535156 C 410.355469 468.554688 411.816406 466.308594 412.4375 464.425781 Z M 412.4375 464.425781 "/>
<path style="fill:none;stroke-width:1;stroke-linecap:butt;stroke-linejoin:miter;stroke:rgb(100%,100%,100%);stroke-opacity:1;stroke-miterlimit:4;" d="M 374.840625 260.354269 C 374.840625 260.354269 376.90625 258.985151 378.375 258.247453 C 379.778125 257.547265 381.53125 256.928349 383.3375 256.972111 C 388.921875 257.097144 394.98125 257.134654 400.409375 256.972111 C 404.534375 256.843951 404.225 255.377933 404.61875 254.640235 C 405.815625 252.399008 411.3375 251.373733 411.6875 254.265134 C 411.946875 256.396956 411.578125 258.025519 412.0625 259.829128 C 413.4125 264.839848 420.115625 261.951573 422.740625 259.904148 C 424.38125 258.622554 423.815625 255.427946 429.509375 255.165376 C 434.609375 254.934064 437.028125 250.50475 437.028125 250.50475 M 413.71875 261.782777 C 411.5375 263.586386 410.296875 265.255585 409.95625 271.782337 C 409.703125 276.649268 409.66875 283.88246 409.875 288.386794 C 410.184375 295.169865 408.459375 293.388137 407.778125 296.973474 C 407.515625 298.351969 407.165625 300.912032 406.95 302.387428 C 406.28125 306.960531 407.68125 307.754494 409.65625 309.52997 C 410.384375 310.186397 411.128125 311.283566 411.6875 312.086907 C 412.53125 313.299732 413.503125 315.018944 414.24375 316.297412 C 417.1375 321.298755 417.865625 323.983851 412.403125 327.194087 C 408.015625 329.772905 406.771875 331.535878 408.346875 336.752903 C 409.009375 338.95662 410.18125 338.472115 410.39375 343.989221 C 410.5875 349.0312 410.321875 352.566524 410.246875 356.045583 C 410.146875 360.731216 407.034375 365.485617 405.4875 366.89537 C 396.846875 374.772485 402.86875 374.788114 406.859375 379.023626 M 383.709375 385.66916 C 383.709375 385.66916 386.29375 386.394355 388.39375 386.403733 C 390.134375 386.41311 394.88125 386.213056 398.040625 386.347467 C 402.3625 386.528766 404.25 383.234132 404.86875 381.83063 C 405.525 380.348982 407.190625 378.817321 408.425 377.767039 C 409.0625 377.226269 410.078125 376.72926 410.796875 376.30102 C 414.228125 374.247344 417.4375 375.910291 419.75 377.110613 C 423.628125 379.126779 430.89375 377.388812 430.603125 377.035593 M 434.621875 426.983376 C 430.08125 423.88567 424.665625 423.77314 422.725 427.558531 C 421.4375 430.077957 420.38125 432.672404 415.05 427.871115 C 412.221875 425.32043 409.534375 422.822884 407.0125 420.056517 C 399.325 411.626129 393.659375 419.628277 389.14375 424.832799 C 387.70625 426.489494 385.509375 427.646054 383.603125 428.983913 C 380.6375 431.065722 377 430.649986 372.88125 429.47467 C 372.33125 426.548885 371.79375 423.710623 369.16875 421.419383 C 367.33125 419.815827 366.371875 418.005966 366.359375 411.641758 C 366.35 408.365878 366.64375 405.752677 371.88125 405.183774 C 374.040625 404.949336 380.953125 402.748745 380.13125 395.57807 C 379.753125 392.292814 380.553125 390.879934 384.00625 385.953612 C 380.803125 384.184387 378.16875 380.217697 378.553125 376.713631 C 378.81875 374.294232 378.565625 372.474993 382.359375 369.611725 C 387.634375 365.632531 385.275 362.800521 378.940625 358.061749 C 376.7 356.386299 373.396875 354.951539 371.2125 352.385225 M 372.88125 429.47467 C 371.415625 426.836462 364.490625 427.339722 362.246875 433.932117 C 360.284375 439.693038 358.25625 442.856388 353.975 442.653208 C 351.115625 444.425559 349.134375 447.232562 346.5125 449.314371 C 341.846875 453.021617 341.303125 460.961248 350.16875 461.577038 C 354 461.84586 353.803125 466.440844 353.41875 469.763611 C 352.896875 474.24919 354.171875 476.584192 356.3125 478.300278 C 358.5 480.056999 360.471875 482.041907 363.096875 484.333147 C 365.621875 486.536864 368.85625 487.859094 373.028125 488.887495 C 374.61875 489.83775 376.209375 490.206599 377.309375 491.297517 C 381.196875 495.16418 377.496875 500.009231 374.08125 500.478107 C 371.16875 500.878214 369.040625 504.02906 369.33125 505.357541 C 370.646875 505.488827 371.74375 505.479449 372.46875 506.179637 C 374.7 508.339592 374.24375 510.124446 374.253125 511.321643 C 374.275 514.444356 376.76875 516.976286 380.240625 517.051306 M 233.975 516.960656 C 233.071875 520.611637 238.221875 524.218855 244.353125 522.896625 C 246.7 521.121148 248.071875 520.242787 249.171875 518.901802 C 250.0875 517.789004 251.0875 517.473294 251.953125 516.957531 C 253.021875 516.322985 253.88125 516.119806 254.740625 515.053895 C 257.078125 512.162493 258.2875 511.72175 259.5125 510.449533 C 261.240625 508.658428 261.759375 507.808199 262.815625 506.257783 C 264.175 508.38648 266.31875 511.346649 267.478125 515.14767 C 268.359375 518.035945 269.78125 517.845269 270.178125 519.830177 C 271.78125 527.85108 273.196875 530.855011 281.3 530.082929 C 282.478125 533.824559 285.203125 533.977725 286.1125 536.844119 M 191.06875 557.896646 C 186.546875 552.485818 183.73125 540.995234 190.028125 535.58128 C 197.03125 529.567166 198.359375 524.422034 189.3375 514.284938 M 413.265625 425.783054 C 412.71875 428.993291 412.196875 431.109484 412.815625 433.000617 C 413.225 434.257204 413.60625 435.30436 413.565625 436.157714 C 413.4625 438.464584 413.75 441.656065 414.09375 444.053584 C 414.471875 446.707421 413.8375 449.442531 412.965625 450.370905 C 410.728125 452.749669 407.25625 456.100568 405.371875 457.963568 C 403.746875 459.57025 401.4375 461.236322 398.603125 462.32724 C 396.725 463.049309 394.83125 464.212121 392.3625 464.205869 C 390.534375 464.205869 387.940625 464.240253 386.121875 464.055829 C 377.640625 463.196223 378.146875 462.955533 374.090625 465.784418 C 370.59375 468.222572 368.40625 470.78576 364.465625 475.108796 C 360.53125 479.428706 359.93125 481.32609 359.428125 482.629565 C 357.19375 488.412367 355.53125 486.921342 353.4125 487.215171 C 351.175 487.524629 346.675 487.152654 345.89375 487.140151 C 342.546875 487.083886 342.971875 488.065399 342.959375 489.547047 C 342.9375 492.194633 343.559375 495.692447 343.334375 498.193118 C 343.171875 500.002979 343.096875 502.100417 341.98125 503.532051 C 340.56875 505.348164 339.909375 506.28279 339.8 507.892597 C 339.703125 509.383622 338.446875 510.58707 337.696875 511.878042 C 337.1 512.906443 336.375 513.956725 335.740625 514.963245 C 334.83125 516.410509 333.8375 518.614225 332.584375 519.773912 C 331.071875 521.174288 328.80625 524.140709 327.24375 526.691394 C 326.26875 528.288697 325.959375 529.739087 323.859375 531.280126 C 320.334375 533.86832 316.775 538.397661 315.965625 542.408113 C 315.49375 544.746241 315.46875 546.643625 315.665625 550.379003 M 378.903125 494.66092 C 378.903125 494.66092 385.375 494.679675 388.15 494.66092 C 390.5375 494.642165 391.196875 494.539012 392.2875 493.907593 C 393.475 493.219908 393.4125 493.141762 395.971875 493.004225 C 396.9625 492.954212 399.43125 493.079245 399.43125 493.079245 M 373.4875 430.06858 C 376.3875 431.69089 376.86875 432.459847 376.946875 435.632573 C 377.08125 441.180938 378.6875 442.240597 379.578125 443.603463 C 380.03125 444.291148 381.51875 445.538358 381.009375 447.663928 C 380.759375 448.695455 380.796875 450.070824 380.93125 451.121106 C 381.19375 453.140398 382.25625 454.165674 383.1875 455.559798 C 384.03125 456.819511 385.975 458.523093 387.021875 459.620263 C 389.64375 462.352246 393.11875 464.430929 395.36875 466.537745 C 397.80625 468.816482 403.79375 472.476839 403.865625 488.86874 M 373.940625 489.472027 C 370.61875 486.052359 374.15 480.575889 381.909375 485.186501 C 383.265625 485.989842 387.003125 487.165158 391.684375 486.011723 C 392.746875 485.752278 394.88125 485.411562 395.971875 485.336542 C 397.690625 485.214634 399.490625 485.502211 400.33125 484.583214 C 401.240625 483.592323 403.715625 483.908033 403.715625 483.908033 M 398.378125 469.619822 C 398.378125 469.619822 401.534375 470.926423 402.7375 470.898291 C 404.490625 470.857655 407.70625 472.367435 409.73125 474.358595 C 412.625 477.196857 417.346875 478.812915 419.28125 475.033776 C 419.815625 473.989746 420.95625 472.586244 423.115625 471.876678 C 424.28125 471.4922 425.721875 471.317153 426.875 470.898291 C 430.921875 469.432272 434.6125 471.37967 436.125 473.605267 C 438.2 476.659212 441 476.853014 442.740625 476.762365 M 341.6875 503.444528 C 341.6875 503.444528 349.115625 512.737648 350.73125 514.747562 C 355.7625 521.021121 356.3625 513.847321 356.759375 511.118463 C 357.253125 507.742557 359.459375 506.979852 362.378125 506.870448 C 364.1125 506.804805 368.1875 507.114263 369.984375 505.295025 M 281.375 530.226718 C 282.225 527.407211 284.328125 528.138657 284.534375 523.834377 C 284.6875 520.652272 287.403125 518.561086 289.946875 518.570464 C 290.940625 518.570464 293.175 518.517324 294.159375 518.645484 C 296.56875 518.964319 299.690625 519.626997 301.078125 520.677279 C 303.69375 522.659061 304.9375 522.352729 308.371875 522.330848 C 310.728125 522.315219 313.00625 522.152675 315.3625 522.180808 C 316.8625 522.199563 319.175 522.037019 320.553125 522.630929 C 323.046875 523.709343 329.5 523.159195 329.5 523.159195 M 308.446875 436.761001 C 308.446875 436.761001 312.771875 441.790476 314.9875 443.303383 C 317.5875 445.075733 318.84375 443.684735 319.5 442.775116 C 321.209375 440.40573 323.840625 440.349465 324.5375 441.871748 C 325.040625 442.972044 326.159375 444.509957 327.54375 442.700096 C 328.021875 442.078054 330.15625 441.484144 331.75625 441.421627 C 334.225 441.324726 335.759375 440.158788 337.24375 437.964449 C 338.071875 436.73912 338.771875 436.020177 339.953125 433.903984 C 342.48125 429.365266 346.103125 430.950066 347.996875 433.225677 C 350.421875 436.138959 350.75625 440.496379 354.1625 442.625076 M 316.565625 444.053584 C 316.565625 444.053584 313.55625 448.711084 313.559375 452.099494 C 313.559375 455.190949 313.859375 459.270169 313.709375 462.40226 C 313.490625 466.994118 313.246875 465.534351 312.35625 466.537745 C 311.5 467.500503 312.3125 469.538551 312.43125 470.823271 C 312.53125 471.892307 312.903125 472.986351 312.95625 474.055388 C 313.084375 476.565437 312.98125 478.953578 312.88125 482.251338 C 312.80625 484.795772 311.54375 488.443626 309.421875 489.847128 C 304.703125 492.969841 307.79375 496.048792 310.475 497.818017 C 313.346875 499.712276 315.46875 504.219736 316.490625 507.592516 C 317.696875 511.574836 317.05 516.460522 316.190625 522.480888 M 259.64375 473.455227 C 259.64375 473.455227 266.003125 478.234635 268.215625 480.522749 C 271.159375 483.564191 272.603125 483.867397 277.165625 483.983053 M 282.503125 470.37315 C 282.503125 470.37315 284.665625 469.860512 285.284375 471.048331 C 287.371875 475.055657 290.184375 470.942052 291.15 469.319742 C 293.00625 466.209532 295.04375 466.12826 297.69375 466.159518 C 302.51875 466.215784 312.50625 466.159518 312.50625 466.159518 M 263.028125 506.088988 C 263.9625 502.956897 268.025 499.768541 273.93125 499.396566 C 279.5125 499.046472 285.265625 494.160786 278.96875 490.072188 C 276.86875 488.709322 276.0125 483.26411 279.11875 481.04789 C 282.78125 478.440941 282.359375 472.761291 281.978125 466.912846 C 281.878125 465.409317 281.284375 463.230607 281.3 461.723953 C 281.340625 458.094853 281.446875 452.730914 281.375 448.942396 C 281.28125 443.678483 283.471875 442.615698 285.5875 442.024914 M 208.3625 513.381571 C 209.35625 515.285207 211.046875 517.020047 213.475 518.570464 C 218.20625 521.590024 216.49375 523.903145 215.28125 525.037825 C 210.765625 529.254582 217.50625 531.31451 219.565625 531.051939 C 222.584375 530.673713 226.815625 533.918334 228.0625 536.694079 C 229.58125 540.073111 231.890625 542.736326 236.034375 542.408113 C 238.91875 542.176801 241.1875 545.802774 243.103125 547.972107 C 245.51875 550.710342 246.609375 553.214139 248.965625 552.935939 C 249.64375 552.854667 251.853125 553.120364 252.5 553.38606 C 254.703125 554.286302 256.084375 551.654345 257.4625 549.700696 C 259.825 546.365425 262.821875 544.921288 264.68125 544.890029 C 267.553125 544.843142 272.040625 542.548776 271.9 538.947809 C 271.740625 534.806072 271.775 528.94825 271.525 525.637986 M 233.1 542.183052 C 235.29375 553.051595 235.36875 549.169303 234.53125 559.928441 M 231.521875 570.531288 C 233.678125 571.816008 239.353125 571.015793 244.90625 570.756348 M 244.23125 522.555908 C 246 524.55332 248.865625 529.263959 248.215625 533.837062 C 247.8625 536.306475 248.890625 539.210379 249.86875 541.204665 C 250.44375 542.373729 251.509375 544.305497 252.05 545.49019 C 253.675 549.053647 255.484375 551.744994 258.515625 555.039629 C 260.103125 556.761966 262.33125 556.899503 262.578125 562.785458 C 262.775 567.517979 262.596875 573.463325 262.728125 578.198971 C 262.825 581.731169 261.584375 584.213086 260.171875 586.094841 C 259.178125 587.417071 258.434375 589.067514 257.1625 590.080286 C 253.678125 592.862283 250.85 594.172009 255.509375 598.276236 C 257.628125 600.145488 259.475 600.986339 262.428125 601.5865 M 244.75625 550.153942 C 244.23125 551.551192 244.1375 552.645236 244.153125 554.364448 C 244.184375 557.430896 243.928125 562.057138 244.153125 565.117334 C 244.30625 567.158507 244.4125 569.009004 245.20625 571.131449 C 246.08125 573.466451 246.084375 577.639446 244.30625 579.477439 C 242.7875 581.046611 241.878125 584.531921 241.975 586.623108 C 242.046875 588.201656 241.771875 591.124316 242.575 592.487182 C 243.46875 594.003214 244.578125 593.734392 245.509375 594.290791 C 246.4375 594.850316 248.259375 595.487988 249.34375 595.419219 C 250.878125 595.325444 253.103125 595.419219 253.103125 595.419219 M 83.315625 570.303102 C 82.96875 575.057503 83.121875 577.792612 88.353125 581.209154 C 98.121875 587.588992 96.978125 578.677225 98.278125 574.741793 C 99.490625 571.068932 101.56875 567.618006 104.21875 565.267375 C 105.109375 564.476537 107.425 563.538786 108.278125 562.710438 C 110.18125 560.863067 111.840625 560.76304 113.99375 560.981849 C 120.7 561.653905 122.79375 556.836986 124.821875 553.38606 C 129.771875 544.961924 129.759375 546.327915 137.528125 546.393558 C 145.8125 546.462326 145.328125 546.352922 152.115625 540.526358 C 154.14375 538.791517 156.165625 535.625042 158.809375 534.212163 C 159.765625 533.699525 161.003125 533.424451 162.41875 532.858674 C 163.94375 532.249136 165.059375 532.039704 166.553125 532.330407 C 168.221875 532.658621 169.515625 532.52421 172.26875 530.676839 C 176.634375 527.751053 177.775 530.079803 179.1125 531.505186 C 180.79375 533.296292 183.36875 534.03399 185.053125 533.987102 C 187.240625 533.92146 191.81875 533.837062 191.81875 533.837062 M 147.98125 525.337905 C 147.59375 528.560645 148.1875 531.511438 143.61875 534.812324 C 138.284375 538.669609 139.146875 544.271113 143.16875 545.34015 C 145.390625 545.930934 147.43125 548.947368 146.928125 550.303983 C 146.2 552.273261 148.178125 555.345961 148.959375 555.942996 C 150.9125 557.440273 150.76875 559.243883 151.290625 560.678643 C 151.740625 561.922727 152.48125 563.932641 153.24375 565.117334 C 154.7125 567.389819 157.496875 572.409917 157.45625 572.409917 M 97.678125 577.223709 C 97.678125 577.223709 100.15625 580.265151 101.209375 581.659275 C 102.20625 582.975253 102.590625 584.791366 104.59375 586.169861 C 105.425 586.74189 107.528125 587.74841 107.528125 587.74841 M 125.046875 652.19071 C 129.89375 646.386026 129.478125 648.26153 128.28125 644.673067 C 128 643.825964 126.9625 643.554016 126.778125 642.04111 C 126.615625 640.728258 126.46875 639.949924 126.625 639.334133 C 126.90625 638.24009 128.15625 637.214814 129.03125 636.627157 C 130.23125 635.82069 132.371875 633.291886 133.91875 632.113445 C 135.440625 630.956884 135.75 628.787552 135.5 627.152738 C 135.171875 625.011538 136.2625 622.892219 137.75625 621.888825 C 140.7875 619.844526 142.88125 615.690286 144.596875 612.789507 C 145.684375 610.95464 145.296875 608.979109 148.809375 607.000453 C 150.44375 606.078331 153.20625 604.746723 154.371875 603.690189 C 155.584375 602.596146 159.384375 602.274184 162.26875 600.608112 C 163.73125 599.76101 168.025 599.617221 170.0875 601.283293 C 171.353125 602.305443 172.975 602.793074 174.75 602.636782 C 177.728125 602.377337 178.3375 602.993127 180.315625 604.143436 C 185.09375 606.916055 193.4 615.271424 193.4 615.271424 M 166.103125 599.854785 C 166.103125 599.854785 165.321875 595.803697 167.15625 594.669018 C 168.16875 594.040724 170.353125 592.846653 171.065625 592.112081 C 172.428125 590.708579 174.803125 590.402247 176.70625 590.005266 C 178.196875 589.695808 179.715625 589.580152 181.065625 588.876838 C 181.909375 588.43922 184.246875 587.964093 185.278125 587.901576 C 190.046875 587.610873 193.340625 583.731706 195.578125 581.809315 M 162.56875 591.658835 C 165.625 594.32205 166.00625 596.685184 165.878125 599.929805 M 11.578125 637.377358 C 11.578125 637.377358 11.209375 641.340922 11.73125 642.26617 C 12.23125 643.150783 13.05625 643.916614 13.909375 644.898127 C 15.3 646.489179 17.178125 648.527226 18.796875 648.958592 C 20.609375 649.439971 21.95625 650.115153 23.459375 651.287342 C 24.60625 652.184458 27.29375 652.715851 27.29375 652.715851 M 20.228125 629.106388 C 22.165625 631.62894 23.90625 631.600807 25.715625 631.663324 C 30.725 631.832119 36.25625 631.77898 40.003125 631.738344 C 42.4625 631.710212 44.49375 632.563566 42.259375 635.573749 C 41.353125 636.792826 40.54375 637.427371 39.553125 638.730846 C 37.721875 641.137743 36.528125 642.022355 34.0625 644.29484 M 38.35 652.19071 C 38.35 652.19071 40.0375 650.018252 41.05625 649.558753 C 42.053125 649.108632 43.440625 648.427199 44.1375 647.980204 C 45.809375 646.908042 47.75625 646.954929 49.628125 646.626716 C 50.553125 646.464172 54.853125 645.360751 55.115625 641.887944 C 55.25625 640.059328 55.490625 637.252324 55.26875 635.348688 C 54.9625 632.760494 56.815625 629.647158 61.584375 627.677879 C 64.6375 626.41504 68.878125 619.85703 68.878125 619.85703 M 54.440625 644.1448 C 58.80625 648.05835 59.875 649.740052 61.734375 645.873389 C 64.315625 640.509449 70.984375 638.943403 70.23125 646.926797 C 69.821875 651.281091 76.55 659.983427 81.584375 659.936539 C 83.3125 659.92091 85.7125 659.505173 87.15 660.46168 C 88.26875 661.20563 90.7 660.414793 91.8125 658.883131 C 93.628125 656.376208 99.971875 657.0889 100.00625 657.154542 M 75.49375 656.851336 C 75.49375 656.851336 71.646875 662.371568 68.728125 665.575553 C 66.0375 668.529471 61.3875 671.423998 65.34375 676.40346 C 66.515625 677.878856 67.521875 680.385779 67.6 682.267534 C 67.678125 684.143038 67.63125 686.177959 67.375 687.756508 C 66.865625 690.882347 65.5875 693.173587 62.034375 693.923788 C 58.83125 694.59897 54.440625 697.005866 54.440625 697.005866 M 35.490625 693.473667 C 35.490625 693.473667 45.5875 692.36712 49.403125 693.623708 C 52.859375 694.758387 56.44375 698.374983 57.9 701.969698 C 59.540625 706.023912 61.853125 709.109115 64.365625 710.615769 C 69.375 713.625952 69.071875 713.941662 70.90625 715.129481 C 75.834375 718.311585 74.140625 724.979 74.140625 724.979 " transform="matrix(1.25,0,0,1.249664,0,0)"/>
<path style=" stroke:none;fill-rule:nonzero;fill:rgb(60%,60%,60%);fill-opacity:1;" d="M 676.835938 764.210938 C 594.957031 764.210938 528.582031 830.570312 528.582031 912.425781 L 531.75 912.425781 C 531.75 832.3125 596.699219 767.378906 676.835938 767.378906 Z M 676.835938 764.210938 "/>
</g>
</svg>
